<svg xmlns="http://www.w3.org/2000/svg" version="1.1" xmlns:xlink="http://www.w3.org/1999/xlink" xmlns:svgjs="http://svgjs.dev/svgjs" width="1000" height="282" viewBox="0 0 1000 282"><g transform="matrix(1,0,0,1,-0.6060606060606233,0.3427897661317729)"><svg viewBox="0 0 396 112" data-background-color="#ffffff" preserveAspectRatio="xMidYMid meet" height="282" width="1000" xmlns="http://www.w3.org/2000/svg" xmlns:xlink="http://www.w3.org/1999/xlink"><defs></defs><g id="tight-bounds" transform="matrix(1,0,0,1,0.2400000000000091,-0.1361434532154533)"><svg viewBox="0 0 395.52 112.27228690643092" height="112.27228690643092" width="395.52"><g><svg viewBox="0 0 609.432267937701 172.9934123076923" height="112.27228690643092" width="395.52"><g transform="matrix(1,0,0,1,213.91226793770105,53.45747538461538)"><svg viewBox="0 0 395.52 66.07846153846154" height="66.07846153846154" width="395.52"><g><svg viewBox="0 0 395.52 66.07846153846154" height="66.07846153846154" width="395.52"><g><svg viewBox="0 0 395.52 66.07846153846154" height="66.07846153846154" width="395.52"><g transform="matrix(1,0,0,1,0,0)"><svg width="395.52" viewBox="3.65 -34.35 207.98999999999998 34.75" height="66.07846153846154" data-palette-color="#013475"><path d="M8.8-14.1L8.8 0 3.65 0 3.65-33.7 9.75-33.7 18.05-19.6Q20.35-15.65 22.23-12.3 24.1-8.95 24.8-7.6L24.8-7.6 25.5-6.2Q25.2-10.75 25.2-19.55L25.2-19.55 25.2-33.7 30.35-33.7 30.35 0 24.25 0 15.9-14.05Q13.65-17.85 11.78-21.23 9.9-24.6 9.15-26.1L9.15-26.1 8.4-27.55Q8.8-22.55 8.8-14.1L8.8-14.1ZM63.1-29.63Q67.25-24.9 67.25-17 67.25-9.1 63.07-4.35 58.9 0.4 51.8 0.4L51.8 0.4Q44.75 0.4 40.52-4.35 36.3-9.1 36.3-17L36.3-17Q36.3-24.85 40.5-29.6 44.7-34.35 51.75-34.35L51.75-34.35Q58.95-34.35 63.1-29.63ZM44.37-26.18Q41.7-22.8 41.7-17 41.7-11.2 44.45-7.8 47.2-4.4 51.8-4.4L51.8-4.4Q56.55-4.4 59.2-7.75 61.85-11.1 61.85-17L61.85-17Q61.85-22.85 59.17-26.2 56.5-29.55 51.75-29.55L51.75-29.55Q47.05-29.55 44.37-26.18ZM93.45-33.7L93.45-29.4 84.6-29.4 84.6 0 79.45 0 79.45-29.4 70.65-29.4 70.65-33.7 93.45-33.7ZM117.64-4.3L117.64 0 98.19 0 98.19-33.7 117.39-33.7 117.39-29.4 103.34-29.4 103.34-19 115.79-19 115.79-14.7 103.34-14.7 103.34-4.3 117.64-4.3ZM142.99-4.25L142.99 0 122.04 0 122.04-4.05Q128.34-8.65 132.67-13.58 136.99-18.5 136.99-22.55L136.99-22.55Q136.99-25.4 135.34-26.93 133.69-28.45 130.79-28.45L130.79-28.45Q126.79-28.45 122.94-25.45L122.94-25.45 122.94-30.3Q126.54-33.05 131.49-33.05L131.49-33.05Q136.09-33.05 139.09-30.48 142.09-27.9 142.09-23.15L142.09-23.15Q142.09-14.35 128.79-4.25L128.79-4.25 142.99-4.25ZM159.29 0L159.29 0 148.69 0 148.69-33.7 159.19-33.7Q166.69-33.7 171.49-29.05 176.29-24.4 176.29-17.2L176.29-17.2Q176.29-9.7 171.76-4.85 167.24 0 159.29 0ZM159.09-29.3L159.09-29.3 153.94-29.3 153.94-4.35 159.24-4.35Q164.99-4.35 167.99-7.95 170.99-11.55 170.99-17.2L170.99-17.2Q170.99-22.4 167.74-25.85 164.49-29.3 159.09-29.3ZM207.49-29.63Q211.64-24.9 211.64-17 211.64-9.1 207.46-4.35 203.29 0.4 196.19 0.4L196.19 0.4Q189.14 0.4 184.91-4.35 180.69-9.1 180.69-17L180.69-17Q180.69-24.85 184.89-29.6 189.09-34.35 196.14-34.35L196.14-34.35Q203.34-34.35 207.49-29.63ZM188.76-26.18Q186.09-22.8 186.09-17 186.09-11.2 188.84-7.8 191.59-4.4 196.19-4.4L196.19-4.4Q200.94-4.4 203.59-7.75 206.24-11.1 206.24-17L206.24-17Q206.24-22.85 203.56-26.2 200.89-29.55 196.14-29.55L196.14-29.55Q191.44-29.55 188.76-26.18Z" opacity="1" transform="matrix(1,0,0,1,0,0)" fill="#ffffff" class="undefined-text-0" data-fill-palette-color="primary" id="text-0"></path></svg></g></svg></g></svg></g></svg></g><g><svg viewBox="0 0 198.3127290515472 172.9934123076923" height="172.9934123076923" width="198.3127290515472"><g><svg xmlns="http://www.w3.org/2000/svg" xmlns:xlink="http://www.w3.org/1999/xlink" version="1.1" x="0" y="0" viewBox="2.5 8.564 95 82.87100000000001" enable-background="new 0 0 100 100" xml:space="preserve" height="172.9934123076923" width="198.3127290515472" class="icon-icon-0" data-fill-palette-color="accent" id="icon-0"><path d="M59.096 50L39.894 28.776 63.048 8.564H6.543c-2.232 0-4.043 1.81-4.043 4.042v56.596c0 2.232 1.811 4.042 4.043 4.042h8.085v18.191l18.191-18.191h60.638c2.232 0 4.043-1.81 4.043-4.042V13.383L59.096 50zM28.776 59.434l8.591-28.636 19.581 21.729L28.776 59.434z" fill="#ffffff" data-fill-palette-color="accent"></path></svg></g></svg></g></svg></g></svg><rect width="395.52" height="112.27228690643092" fill="none" stroke="none" visibility="hidden"></rect></g></svg></g></svg>